<svg width="2068" height="542" viewBox="0 0 2068 542" fill="none" xmlns="http://www.w3.org/2000/svg">
<path d="M1081.47 203.749L1071 202.211V144.076L1081.47 141C1081.47 141 1089.47 151.151 1108.86 156.995C1128.26 162.839 1142.11 161.916 1142.11 161.916L1150.11 181.295L1146.11 202.211L1154.12 216.975L1150.11 235.123L1154.12 273.88L1155.96 235.123L1163.04 216.975L1157.5 199.442L1166.12 181.295L1164.89 161.916C1164.89 161.916 1178.74 162.839 1198.14 156.995C1217.53 151.151 1225.53 141 1225.53 141L1236 144.076V202.211L1225.53 203.749C1225.53 203.749 1207.99 187.139 1190.75 187.754C1173.51 188.369 1170.74 210.823 1170.74 210.823V332.322C1170.74 336.013 1156.27 376 1153.5 376C1150.73 376 1136.26 336.013 1136.26 332.322V210.823C1136.26 210.823 1133.49 188.369 1116.25 187.754C1099.01 187.139 1081.47 203.749 1081.47 203.749Z" fill="white" stroke="white"/>
<path d="M1953.83 366H1919.84C1919.06 366 1918.67 365.512 1918.67 364.535L1919.26 158.432C1919.26 157.65 1919.65 157.26 1920.43 157.26H1957.05C1957.83 157.26 1958.51 157.65 1959.1 158.432L1986.49 197.982L2013.74 158.432C2014.32 157.65 2015.06 157.26 2015.94 157.26H2052.7C2053.58 157.26 2054.02 157.65 2054.02 158.432L2054.61 364.535C2054.61 365.512 2054.22 366 2053.44 366H2019.45C2018.67 366 2018.28 365.512 2018.28 364.535L2017.99 211.459L1986.49 257.162L1955.29 211.459L1955 364.535C1955 365.512 1954.61 366 1953.83 366Z" fill="#519E41"/>
<path d="M1822.08 368.93C1811.43 368.93 1801.62 366.195 1792.63 360.727C1783.75 355.258 1776.57 347.982 1771.1 338.9C1765.73 329.721 1763.04 319.662 1763.04 308.725L1763.34 213.656C1763.34 202.523 1766.02 192.514 1771.39 183.627C1776.67 174.643 1783.8 167.465 1792.78 162.094C1801.77 156.625 1811.53 153.891 1822.08 153.891C1833.02 153.891 1842.83 156.576 1851.52 161.947C1860.31 167.318 1867.34 174.545 1872.62 183.627C1877.99 192.611 1880.67 202.621 1880.67 213.656L1880.96 308.725C1880.96 319.662 1878.33 329.672 1873.05 338.754C1867.68 347.934 1860.55 355.258 1851.67 360.727C1842.78 366.195 1832.92 368.93 1822.08 368.93ZM1822.08 332.748C1828.13 332.748 1833.41 330.307 1837.9 325.424C1842.39 320.443 1844.64 314.877 1844.64 308.725L1844.34 213.656C1844.34 207.016 1842.24 201.4 1838.04 196.811C1833.85 192.221 1828.52 189.926 1822.08 189.926C1815.93 189.926 1810.65 192.172 1806.26 196.664C1801.86 201.156 1799.67 206.82 1799.67 213.656V308.725C1799.67 315.268 1801.86 320.932 1806.26 325.717C1810.65 330.404 1815.93 332.748 1822.08 332.748Z" fill="#519E41"/>
<path d="M1670.85 368.93C1660.01 368.93 1650.1 366.195 1641.11 360.727C1632.22 355.258 1625.14 347.934 1619.87 338.754C1614.7 329.477 1612.11 319.174 1612.11 307.846L1612.4 214.242C1612.4 203.109 1614.94 193.051 1620.02 184.066C1625.1 174.984 1632.08 167.709 1640.96 162.24C1649.95 156.674 1659.91 153.891 1670.85 153.891C1681.98 153.891 1691.89 156.576 1700.58 161.947C1709.37 167.318 1716.36 174.594 1721.53 183.773C1726.8 192.855 1729.44 203.012 1729.44 214.242V228.012C1729.44 228.793 1729.05 229.184 1728.27 229.184H1694.58C1693.8 229.184 1693.41 228.793 1693.41 228.012V214.242C1693.41 207.602 1691.26 201.889 1686.96 197.104C1682.66 192.318 1677.29 189.926 1670.85 189.926C1663.72 189.926 1658.25 192.367 1654.44 197.25C1650.63 202.133 1648.73 207.797 1648.73 214.242V307.846C1648.73 315.17 1650.88 321.176 1655.17 325.863C1659.47 330.453 1664.7 332.748 1670.85 332.748C1677.29 332.748 1682.66 330.209 1686.96 325.131C1691.26 319.955 1693.41 314.193 1693.41 307.846V293.93C1693.41 293.148 1693.8 292.758 1694.58 292.758H1728.56C1729.34 292.758 1729.73 293.148 1729.73 293.93V307.846C1729.73 319.076 1727.1 329.33 1721.82 338.607C1716.45 347.787 1709.37 355.16 1700.58 360.727C1691.79 366.195 1681.88 368.93 1670.85 368.93Z" fill="#519E41"/>
<path d="M1574.84 366H1540.86C1540.08 366 1539.69 365.609 1539.69 364.828V330.844C1539.69 330.062 1540.08 329.672 1540.86 329.672H1574.84C1575.62 329.672 1576.01 330.062 1576.01 330.844V364.828C1576.01 365.609 1575.62 366 1574.84 366Z" fill="#519E41"/>
<path d="M1496.85 366H1399.88C1399.1 366 1398.71 365.512 1398.71 364.535L1399 158.432C1399 157.65 1399.39 157.26 1400.17 157.26H1496.56C1497.34 157.26 1497.73 157.748 1497.73 158.725V192.27C1497.73 193.051 1497.34 193.441 1496.56 193.441H1435.04V240.316H1496.56C1497.34 240.316 1497.73 240.707 1497.73 241.488L1498.03 275.473C1498.03 276.254 1497.63 276.645 1496.85 276.645H1435.04V329.086H1496.85C1497.63 329.086 1498.03 329.574 1498.03 330.551V364.828C1498.03 365.609 1497.63 366 1496.85 366Z" fill="#519E41"/>
<path d="M1355.88 366H1258.9C1258.12 366 1257.73 365.512 1257.73 364.535L1258.03 158.432C1258.03 157.65 1258.42 157.26 1259.2 157.26H1355.58C1356.37 157.26 1356.76 157.748 1356.76 158.725V192.27C1356.76 193.051 1356.37 193.441 1355.58 193.441H1294.06V240.316H1355.58C1356.37 240.316 1356.76 240.707 1356.76 241.488L1357.05 275.473C1357.05 276.254 1356.66 276.645 1355.88 276.645H1294.06V329.086H1355.88C1356.66 329.086 1357.05 329.574 1357.05 330.551V364.828C1357.05 365.609 1356.66 366 1355.88 366Z" fill="#519E41"/>
<path d="M1049.97 366H952.998C952.217 366 951.826 365.512 951.826 364.535L952.119 158.432C952.119 157.65 952.51 157.26 953.291 157.26H1049.68C1050.46 157.26 1050.85 157.748 1050.85 158.725V192.27C1050.85 193.051 1050.46 193.441 1049.68 193.441H988.154V240.316H1049.68C1050.46 240.316 1050.85 240.707 1050.85 241.488L1051.14 275.473C1051.14 276.254 1050.75 276.645 1049.97 276.645H988.154V329.086H1049.97C1050.75 329.086 1051.14 329.574 1051.14 330.551V364.828C1051.14 365.609 1050.75 366 1049.97 366Z" fill="#519E41"/>
<path d="M829.6 366H795.615C794.834 366 794.443 365.512 794.443 364.535L794.736 158.432C794.736 157.65 795.225 157.26 796.201 157.26H829.6C830.576 157.26 831.064 157.65 831.064 158.432L830.771 240.023H875.742V158.432C875.742 157.65 876.133 157.26 876.914 157.26H910.312C911.289 157.26 911.777 157.65 911.777 158.432L912.363 364.535C912.363 365.512 911.875 366 910.898 366H877.207C876.23 366 875.742 365.512 875.742 364.535V276.352H830.771V364.535C830.771 365.512 830.381 366 829.6 366Z" fill="#519E41"/>
<path d="M723.34 366H689.502C688.623 366 688.184 365.512 688.184 364.535V193.441H649.219C648.242 193.441 647.754 192.953 647.754 191.977L648.047 158.432C648.047 157.65 648.438 157.26 649.219 157.26H763.184C764.258 157.26 764.795 157.65 764.795 158.432V191.977C764.795 192.953 764.404 193.441 763.623 193.441H724.219L724.512 364.535C724.512 365.512 724.121 366 723.34 366Z" fill="#519E41"/>
<path d="M588.223 366H554.385C553.506 366 553.066 365.512 553.066 364.535V193.441H514.102C513.125 193.441 512.637 192.953 512.637 191.977L512.93 158.432C512.93 157.65 513.32 157.26 514.102 157.26H628.066C629.141 157.26 629.678 157.65 629.678 158.432V191.977C629.678 192.953 629.287 193.441 628.506 193.441H589.102L589.395 364.535C589.395 365.512 589.004 366 588.223 366Z" fill="#519E41"/>
<path d="M481.67 366H447.686C446.709 366 446.221 365.512 446.221 364.535L446.514 158.432C446.514 157.65 446.904 157.26 447.686 157.26H481.377C482.158 157.26 482.549 157.65 482.549 158.432L482.842 364.535C482.842 365.512 482.451 366 481.67 366Z" fill="#519E41"/>
<path d="M410.127 366H313.154C312.373 366 311.982 365.512 311.982 364.535L312.275 158.725C312.275 157.748 312.764 157.26 313.74 157.26H347.139C348.115 157.26 348.604 157.748 348.604 158.725L348.311 329.086H410.127C411.104 329.086 411.592 329.574 411.592 330.551V364.535C411.592 365.512 411.104 366 410.127 366Z" fill="#519E41"/>
<path d="M192.686 366H158.994C158.018 366 157.529 365.512 157.529 364.535L158.115 158.432C158.115 157.65 158.506 157.26 159.287 157.26H217.002C235.361 157.26 249.863 162.875 260.508 174.105C271.25 185.238 276.621 200.424 276.621 219.662C276.621 233.725 273.838 245.98 268.271 256.43C262.607 266.781 255.283 274.789 246.299 280.453C237.314 286.117 227.549 288.949 217.002 288.949H194.15V364.535C194.15 365.512 193.662 366 192.686 366ZM217.002 192.855L194.15 193.148V252.621H217.002C223.35 252.621 228.867 249.594 233.555 243.539C238.242 237.387 240.586 229.428 240.586 219.662C240.586 211.85 238.486 205.453 234.287 200.473C230.088 195.395 224.326 192.855 217.002 192.855Z" fill="#519E41"/>
<path d="M62.8418 368.93C52.1973 368.93 42.3828 366.195 33.3984 360.727C24.5117 355.258 17.3828 347.982 12.0117 338.9C6.73828 329.721 4.10156 319.662 4.10156 308.725V294.955C4.10156 293.881 4.58984 293.344 5.56641 293.344H39.2578C40.0391 293.344 40.4297 293.881 40.4297 294.955V308.725C40.4297 315.268 42.627 320.932 47.0215 325.717C51.416 330.404 56.6895 332.748 62.8418 332.748C69.0918 332.748 74.4141 330.355 78.8086 325.57C83.2031 320.688 85.4004 315.072 85.4004 308.725C85.4004 301.4 80.6152 295.004 71.0449 289.535C69.4824 288.559 67.4316 287.387 64.8926 286.02C62.4512 284.555 59.5215 282.895 56.1035 281.039C52.6855 279.184 49.3652 277.377 46.1426 275.619C42.9199 273.764 39.7949 272.006 36.7676 270.346C25.8301 263.9 17.6758 255.844 12.3047 246.176C7.03125 236.41 4.39453 225.473 4.39453 213.363C4.39453 202.23 7.12891 192.172 12.5977 183.188C18.0664 174.301 25.1953 167.27 33.9844 162.094C42.8711 156.82 52.4902 154.184 62.8418 154.184C73.4863 154.184 83.252 156.82 92.1387 162.094C101.025 167.465 108.105 174.594 113.379 183.48C118.75 192.367 121.436 202.328 121.436 213.363V237.973C121.436 238.754 121.045 239.145 120.264 239.145H86.5723C85.791 239.145 85.4004 238.754 85.4004 237.973L85.1074 213.363C85.1074 206.332 82.9102 200.619 78.5156 196.225C74.1211 191.83 68.8965 189.633 62.8418 189.633C56.6895 189.633 51.416 191.977 47.0215 196.664C42.627 201.352 40.4297 206.918 40.4297 213.363C40.4297 219.906 41.7969 225.375 44.5312 229.77C47.3633 234.164 52.4902 238.363 59.9121 242.367C60.6934 242.758 62.5 243.734 65.332 245.297C68.1641 246.859 71.2891 248.617 74.707 250.57C78.2227 252.426 81.3965 254.135 84.2285 255.697C87.0605 257.162 88.7695 258.041 89.3555 258.334C99.3164 263.9 107.178 270.736 112.939 278.842C118.799 286.947 121.729 296.908 121.729 308.725C121.729 320.15 119.092 330.404 113.818 339.486C108.447 348.568 101.318 355.746 92.4316 361.02C83.5449 366.293 73.6816 368.93 62.8418 368.93Z" fill="#519E41"/>
</svg>
