<svg xmlns="http://www.w3.org/2000/svg" width="512" height="512" viewBox="0 0 512 512">
  <rect width="512" height="512" rx="96" fill="#022c22"/>
  <g transform="translate(256, 170) scale(0.3)">
    <path d="M1081.47 203.749L1071 202.211V144.076L1081.47 141C1081.47 141 1089.47 151.151 1108.86 156.995C1128.26 162.839 1142.11 161.916 1142.11 161.916L1150.11 181.295L1146.11 202.211L1154.12 216.975L1150.11 235.123L1154.12 273.88L1155.96 235.123L1163.04 216.975L1157.5 199.442L1166.12 181.295L1164.89 161.916C1164.89 161.916 1178.74 162.839 1198.14 156.995C1217.53 151.151 1225.53 141 1225.53 141L1236 144.076V202.211L1225.53 203.749C1225.53 203.749 1207.99 187.139 1190.75 187.754C1173.51 188.369 1170.74 210.823 1170.74 210.823V332.322C1170.74 336.013 1156.27 376 1153.5 376C1150.73 376 1136.26 336.013 1136.26 332.322V210.823C1136.26 210.823 1133.49 188.369 1116.25 187.754C1099.01 187.139 1081.47 203.749 1081.47 203.749Z" fill="#10b981" stroke="#10b981" transform="translate(-1153, -141)"/>
  </g>
  <text x="256" y="430" text-anchor="middle" font-size="60" font-weight="bold" font-family="Arial,sans-serif" fill="white">STT</text>
</svg>
